<mxfile host="app.diagrams.net" modified="2023-05-22T07:05:36.942Z" agent="Mozilla/5.0 (Windows NT 10.0; WOW64) AppleWebKit/537.36 (KHTML, like Gecko) Chrome/111.0.0.0 Safari/537.36" etag="XYCsboqPVOKNn01x_Jz4" version="21.3.2" type="device" pages="2">
  <diagram id="HE0IYKD-BkBfxlgNFHw1" name="Page-1">
    <mxGraphModel dx="2240" dy="1862" grid="1" gridSize="10" guides="1" tooltips="1" connect="1" arrows="1" fold="1" page="1" pageScale="1" pageWidth="850" pageHeight="1100" math="0" shadow="0">
      <root>
        <mxCell id="0" />
        <mxCell id="1" parent="0" />
        <mxCell id="R_b42avNDvzon8WLocAG-1" value="Product" style="swimlane;fontStyle=1;align=center;verticalAlign=top;childLayout=stackLayout;horizontal=1;startSize=26;horizontalStack=0;resizeParent=1;resizeParentMax=0;resizeLast=0;collapsible=1;marginBottom=0;" parent="1" vertex="1">
          <mxGeometry x="750" y="242" width="370" height="380" as="geometry" />
        </mxCell>
        <mxCell id="R_b42avNDvzon8WLocAG-2" value="+ id: int&#xa;+ name: String&#xa;+ category: Category&#xa;+ brand: Brand&#xa;+ releaseDate: Date&#xa;+ description: String&#xa;+ specification: String&#xa;+ price: double&#xa;+ discount: int&#xa;+ quntity: int&#xa;+ state: State&#xa;+ store: Store&#xa;+ images: List&lt;Image&gt;" style="text;strokeColor=none;fillColor=none;align=left;verticalAlign=top;spacingLeft=4;spacingRight=4;overflow=hidden;rotatable=0;points=[[0,0.5],[1,0.5]];portConstraint=eastwest;" parent="R_b42avNDvzon8WLocAG-1" vertex="1">
          <mxGeometry y="26" width="370" height="194" as="geometry" />
        </mxCell>
        <mxCell id="R_b42avNDvzon8WLocAG-3" value="" style="line;strokeWidth=1;fillColor=none;align=left;verticalAlign=middle;spacingTop=-1;spacingLeft=3;spacingRight=3;rotatable=0;labelPosition=right;points=[];portConstraint=eastwest;strokeColor=inherit;" parent="R_b42avNDvzon8WLocAG-1" vertex="1">
          <mxGeometry y="220" width="370" height="8" as="geometry" />
        </mxCell>
        <mxCell id="R_b42avNDvzon8WLocAG-4" value="+ Product(): void&#xa;+ Product(int id, String name, Category category, Brand brand, &#xa;                 Date releaseDate, String description, String specification, &#xa;                 double price, int discount, int quantity, State state, &#xa;                 Store store, List&lt;Image&gt; images): void&#xa;+ getNewPrice(): double&#xa;+ getOldPriceVND(): String&#xa;+ getNewPriceVND(): String&#xa;+ isNew(): boolean&#xa;+ isSale(): boolean" style="text;strokeColor=none;fillColor=none;align=left;verticalAlign=top;spacingLeft=4;spacingRight=4;overflow=hidden;rotatable=0;points=[[0,0.5],[1,0.5]];portConstraint=eastwest;" parent="R_b42avNDvzon8WLocAG-1" vertex="1">
          <mxGeometry y="228" width="370" height="152" as="geometry" />
        </mxCell>
        <mxCell id="R_b42avNDvzon8WLocAG-5" value="Cart icon" style="swimlane;fontStyle=0;childLayout=stackLayout;horizontal=1;startSize=26;fillColor=none;horizontalStack=0;resizeParent=1;resizeParentMax=0;resizeLast=0;collapsible=1;marginBottom=0;" parent="1" vertex="1">
          <mxGeometry x="100" y="161" width="140" height="52" as="geometry" />
        </mxCell>
        <mxCell id="R_b42avNDvzon8WLocAG-6" value=" " style="text;strokeColor=none;fillColor=none;align=left;verticalAlign=top;spacingLeft=4;spacingRight=4;overflow=hidden;rotatable=0;points=[[0,0.5],[1,0.5]];portConstraint=eastwest;" parent="R_b42avNDvzon8WLocAG-5" vertex="1">
          <mxGeometry y="26" width="140" height="26" as="geometry" />
        </mxCell>
        <mxCell id="R_b42avNDvzon8WLocAG-7" value="AddToCartServlet" style="swimlane;fontStyle=1;align=center;verticalAlign=top;childLayout=stackLayout;horizontal=1;startSize=26;horizontalStack=0;resizeParent=1;resizeParentMax=0;resizeLast=0;collapsible=1;marginBottom=0;" parent="1" vertex="1">
          <mxGeometry x="300" y="132" width="420" height="110" as="geometry" />
        </mxCell>
        <mxCell id="R_b42avNDvzon8WLocAG-8" value=" " style="text;strokeColor=none;fillColor=none;align=left;verticalAlign=top;spacingLeft=4;spacingRight=4;overflow=hidden;rotatable=0;points=[[0,0.5],[1,0.5]];portConstraint=eastwest;" parent="R_b42avNDvzon8WLocAG-7" vertex="1">
          <mxGeometry y="26" width="420" height="26" as="geometry" />
        </mxCell>
        <mxCell id="R_b42avNDvzon8WLocAG-9" value="" style="line;strokeWidth=1;fillColor=none;align=left;verticalAlign=middle;spacingTop=-1;spacingLeft=3;spacingRight=3;rotatable=0;labelPosition=right;points=[];portConstraint=eastwest;strokeColor=inherit;" parent="R_b42avNDvzon8WLocAG-7" vertex="1">
          <mxGeometry y="52" width="420" height="8" as="geometry" />
        </mxCell>
        <mxCell id="R_b42avNDvzon8WLocAG-10" value="+ doGet(HttpServletRequest request, HttpServletResponse response): void&#xa;+ doPost(HttpServletRequest request, HttpServletResponse response): void" style="text;strokeColor=none;fillColor=none;align=left;verticalAlign=top;spacingLeft=4;spacingRight=4;overflow=hidden;rotatable=0;points=[[0,0.5],[1,0.5]];portConstraint=eastwest;" parent="R_b42avNDvzon8WLocAG-7" vertex="1">
          <mxGeometry y="60" width="420" height="50" as="geometry" />
        </mxCell>
        <mxCell id="R_b42avNDvzon8WLocAG-11" value="ProductDAO" style="swimlane;fontStyle=1;align=center;verticalAlign=top;childLayout=stackLayout;horizontal=1;startSize=26;horizontalStack=0;resizeParent=1;resizeParentMax=0;resizeLast=0;collapsible=1;marginBottom=0;" parent="1" vertex="1">
          <mxGeometry x="740" y="40" width="380" height="150" as="geometry" />
        </mxCell>
        <mxCell id="R_b42avNDvzon8WLocAG-12" value="+ cdao: CategoryDAO&#xa;+ bdao: BrandDAO&#xa;+ sdao: StateDAO&#xa;+ stdao: StoreDAO&#xa;+ idao: ImageDAO" style="text;strokeColor=none;fillColor=none;align=left;verticalAlign=top;spacingLeft=4;spacingRight=4;overflow=hidden;rotatable=0;points=[[0,0.5],[1,0.5]];portConstraint=eastwest;" parent="R_b42avNDvzon8WLocAG-11" vertex="1">
          <mxGeometry y="26" width="380" height="84" as="geometry" />
        </mxCell>
        <mxCell id="R_b42avNDvzon8WLocAG-13" value="" style="line;strokeWidth=1;fillColor=none;align=left;verticalAlign=middle;spacingTop=-1;spacingLeft=3;spacingRight=3;rotatable=0;labelPosition=right;points=[];portConstraint=eastwest;strokeColor=inherit;" parent="R_b42avNDvzon8WLocAG-11" vertex="1">
          <mxGeometry y="110" width="380" height="8" as="geometry" />
        </mxCell>
        <mxCell id="R_b42avNDvzon8WLocAG-14" value="+ getProductById(): Product" style="text;strokeColor=none;fillColor=none;align=left;verticalAlign=top;spacingLeft=4;spacingRight=4;overflow=hidden;rotatable=0;points=[[0,0.5],[1,0.5]];portConstraint=eastwest;" parent="R_b42avNDvzon8WLocAG-11" vertex="1">
          <mxGeometry y="118" width="380" height="32" as="geometry" />
        </mxCell>
        <mxCell id="R_b42avNDvzon8WLocAG-15" value="" style="endArrow=open;html=1;endSize=12;startArrow=diamondThin;startSize=14;startFill=0;edgeStyle=orthogonalEdgeStyle;align=left;verticalAlign=bottom;rounded=0;" parent="1" source="R_b42avNDvzon8WLocAG-7" target="R_b42avNDvzon8WLocAG-11" edge="1">
          <mxGeometry x="-1" y="50" relative="1" as="geometry">
            <mxPoint x="510" y="70" as="sourcePoint" />
            <mxPoint x="720" y="80" as="targetPoint" />
            <Array as="points">
              <mxPoint x="510" y="80" />
            </Array>
            <mxPoint x="-40" y="20" as="offset" />
          </mxGeometry>
        </mxCell>
        <mxCell id="R_b42avNDvzon8WLocAG-17" value="" style="endArrow=open;html=1;endSize=12;startArrow=diamondThin;startSize=14;startFill=1;edgeStyle=orthogonalEdgeStyle;align=left;verticalAlign=bottom;rounded=0;" parent="1" source="R_b42avNDvzon8WLocAG-5" target="R_b42avNDvzon8WLocAG-7" edge="1">
          <mxGeometry x="-0.1111" y="107" relative="1" as="geometry">
            <mxPoint x="220" y="180" as="sourcePoint" />
            <mxPoint x="380" y="180" as="targetPoint" />
            <mxPoint as="offset" />
          </mxGeometry>
        </mxCell>
        <mxCell id="R_b42avNDvzon8WLocAG-18" value="DBContext" style="swimlane;fontStyle=1;align=center;verticalAlign=top;childLayout=stackLayout;horizontal=1;startSize=26;horizontalStack=0;resizeParent=1;resizeParentMax=0;resizeLast=0;collapsible=1;marginBottom=0;" parent="1" vertex="1">
          <mxGeometry x="1490" y="-140" width="160" height="86" as="geometry" />
        </mxCell>
        <mxCell id="R_b42avNDvzon8WLocAG-19" value="+ connection: Connection" style="text;strokeColor=none;fillColor=none;align=left;verticalAlign=top;spacingLeft=4;spacingRight=4;overflow=hidden;rotatable=0;points=[[0,0.5],[1,0.5]];portConstraint=eastwest;" parent="R_b42avNDvzon8WLocAG-18" vertex="1">
          <mxGeometry y="26" width="160" height="26" as="geometry" />
        </mxCell>
        <mxCell id="R_b42avNDvzon8WLocAG-20" value="" style="line;strokeWidth=1;fillColor=none;align=left;verticalAlign=middle;spacingTop=-1;spacingLeft=3;spacingRight=3;rotatable=0;labelPosition=right;points=[];portConstraint=eastwest;strokeColor=inherit;" parent="R_b42avNDvzon8WLocAG-18" vertex="1">
          <mxGeometry y="52" width="160" height="8" as="geometry" />
        </mxCell>
        <mxCell id="R_b42avNDvzon8WLocAG-21" value="+ DBContext(): void" style="text;strokeColor=none;fillColor=none;align=left;verticalAlign=top;spacingLeft=4;spacingRight=4;overflow=hidden;rotatable=0;points=[[0,0.5],[1,0.5]];portConstraint=eastwest;" parent="R_b42avNDvzon8WLocAG-18" vertex="1">
          <mxGeometry y="60" width="160" height="26" as="geometry" />
        </mxCell>
        <mxCell id="R_b42avNDvzon8WLocAG-23" value="Classname" style="swimlane;fontStyle=1;align=center;verticalAlign=top;childLayout=stackLayout;horizontal=1;startSize=26;horizontalStack=0;resizeParent=1;resizeParentMax=0;resizeLast=0;collapsible=1;marginBottom=0;" parent="1" vertex="1">
          <mxGeometry x="-80" y="-260" width="160" height="86" as="geometry" />
        </mxCell>
        <mxCell id="R_b42avNDvzon8WLocAG-24" value="+ field: type" style="text;strokeColor=none;fillColor=none;align=left;verticalAlign=top;spacingLeft=4;spacingRight=4;overflow=hidden;rotatable=0;points=[[0,0.5],[1,0.5]];portConstraint=eastwest;" parent="R_b42avNDvzon8WLocAG-23" vertex="1">
          <mxGeometry y="26" width="160" height="26" as="geometry" />
        </mxCell>
        <mxCell id="R_b42avNDvzon8WLocAG-25" value="" style="line;strokeWidth=1;fillColor=none;align=left;verticalAlign=middle;spacingTop=-1;spacingLeft=3;spacingRight=3;rotatable=0;labelPosition=right;points=[];portConstraint=eastwest;strokeColor=inherit;" parent="R_b42avNDvzon8WLocAG-23" vertex="1">
          <mxGeometry y="52" width="160" height="8" as="geometry" />
        </mxCell>
        <mxCell id="R_b42avNDvzon8WLocAG-26" value="+ method(type): type" style="text;strokeColor=none;fillColor=none;align=left;verticalAlign=top;spacingLeft=4;spacingRight=4;overflow=hidden;rotatable=0;points=[[0,0.5],[1,0.5]];portConstraint=eastwest;" parent="R_b42avNDvzon8WLocAG-23" vertex="1">
          <mxGeometry y="60" width="160" height="26" as="geometry" />
        </mxCell>
        <mxCell id="R_b42avNDvzon8WLocAG-27" value="Classname" style="swimlane;fontStyle=1;align=center;verticalAlign=top;childLayout=stackLayout;horizontal=1;startSize=26;horizontalStack=0;resizeParent=1;resizeParentMax=0;resizeLast=0;collapsible=1;marginBottom=0;" parent="1" vertex="1">
          <mxGeometry x="2300" y="640" width="160" height="86" as="geometry" />
        </mxCell>
        <mxCell id="R_b42avNDvzon8WLocAG-28" value="+ field: type" style="text;strokeColor=none;fillColor=none;align=left;verticalAlign=top;spacingLeft=4;spacingRight=4;overflow=hidden;rotatable=0;points=[[0,0.5],[1,0.5]];portConstraint=eastwest;" parent="R_b42avNDvzon8WLocAG-27" vertex="1">
          <mxGeometry y="26" width="160" height="26" as="geometry" />
        </mxCell>
        <mxCell id="R_b42avNDvzon8WLocAG-29" value="" style="line;strokeWidth=1;fillColor=none;align=left;verticalAlign=middle;spacingTop=-1;spacingLeft=3;spacingRight=3;rotatable=0;labelPosition=right;points=[];portConstraint=eastwest;strokeColor=inherit;" parent="R_b42avNDvzon8WLocAG-27" vertex="1">
          <mxGeometry y="52" width="160" height="8" as="geometry" />
        </mxCell>
        <mxCell id="R_b42avNDvzon8WLocAG-30" value="+ method(type): type" style="text;strokeColor=none;fillColor=none;align=left;verticalAlign=top;spacingLeft=4;spacingRight=4;overflow=hidden;rotatable=0;points=[[0,0.5],[1,0.5]];portConstraint=eastwest;" parent="R_b42avNDvzon8WLocAG-27" vertex="1">
          <mxGeometry y="60" width="160" height="26" as="geometry" />
        </mxCell>
        <mxCell id="R_b42avNDvzon8WLocAG-31" value="Category" style="swimlane;fontStyle=1;align=center;verticalAlign=top;childLayout=stackLayout;horizontal=1;startSize=26;horizontalStack=0;resizeParent=1;resizeParentMax=0;resizeLast=0;collapsible=1;marginBottom=0;" parent="1" vertex="1">
          <mxGeometry x="1130" y="242" width="210" height="130" as="geometry" />
        </mxCell>
        <mxCell id="R_b42avNDvzon8WLocAG-32" value="+ id: int&#xa;+ name: String" style="text;strokeColor=none;fillColor=none;align=left;verticalAlign=top;spacingLeft=4;spacingRight=4;overflow=hidden;rotatable=0;points=[[0,0.5],[1,0.5]];portConstraint=eastwest;" parent="R_b42avNDvzon8WLocAG-31" vertex="1">
          <mxGeometry y="26" width="210" height="44" as="geometry" />
        </mxCell>
        <mxCell id="R_b42avNDvzon8WLocAG-33" value="" style="line;strokeWidth=1;fillColor=none;align=left;verticalAlign=middle;spacingTop=-1;spacingLeft=3;spacingRight=3;rotatable=0;labelPosition=right;points=[];portConstraint=eastwest;strokeColor=inherit;" parent="R_b42avNDvzon8WLocAG-31" vertex="1">
          <mxGeometry y="70" width="210" height="8" as="geometry" />
        </mxCell>
        <mxCell id="R_b42avNDvzon8WLocAG-34" value="+ Category(): void&#xa;+ Category(int id, String name): void" style="text;strokeColor=none;fillColor=none;align=left;verticalAlign=top;spacingLeft=4;spacingRight=4;overflow=hidden;rotatable=0;points=[[0,0.5],[1,0.5]];portConstraint=eastwest;" parent="R_b42avNDvzon8WLocAG-31" vertex="1">
          <mxGeometry y="78" width="210" height="52" as="geometry" />
        </mxCell>
        <mxCell id="R_b42avNDvzon8WLocAG-35" value="BrandDAO" style="swimlane;fontStyle=1;align=center;verticalAlign=top;childLayout=stackLayout;horizontal=1;startSize=26;horizontalStack=0;resizeParent=1;resizeParentMax=0;resizeLast=0;collapsible=1;marginBottom=0;" parent="1" vertex="1">
          <mxGeometry x="1340" y="40" width="170" height="90" as="geometry" />
        </mxCell>
        <mxCell id="R_b42avNDvzon8WLocAG-36" value=" " style="text;strokeColor=none;fillColor=none;align=left;verticalAlign=top;spacingLeft=4;spacingRight=4;overflow=hidden;rotatable=0;points=[[0,0.5],[1,0.5]];portConstraint=eastwest;" parent="R_b42avNDvzon8WLocAG-35" vertex="1">
          <mxGeometry y="26" width="170" height="24" as="geometry" />
        </mxCell>
        <mxCell id="R_b42avNDvzon8WLocAG-37" value="" style="line;strokeWidth=1;fillColor=none;align=left;verticalAlign=middle;spacingTop=-1;spacingLeft=3;spacingRight=3;rotatable=0;labelPosition=right;points=[];portConstraint=eastwest;strokeColor=inherit;" parent="R_b42avNDvzon8WLocAG-35" vertex="1">
          <mxGeometry y="50" width="170" height="8" as="geometry" />
        </mxCell>
        <mxCell id="R_b42avNDvzon8WLocAG-38" value="+ getBrandById(int id): Brand" style="text;strokeColor=none;fillColor=none;align=left;verticalAlign=top;spacingLeft=4;spacingRight=4;overflow=hidden;rotatable=0;points=[[0,0.5],[1,0.5]];portConstraint=eastwest;" parent="R_b42avNDvzon8WLocAG-35" vertex="1">
          <mxGeometry y="58" width="170" height="32" as="geometry" />
        </mxCell>
        <mxCell id="R_b42avNDvzon8WLocAG-39" value="Brand" style="swimlane;fontStyle=1;align=center;verticalAlign=top;childLayout=stackLayout;horizontal=1;startSize=26;horizontalStack=0;resizeParent=1;resizeParentMax=0;resizeLast=0;collapsible=1;marginBottom=0;" parent="1" vertex="1">
          <mxGeometry x="1350" y="242" width="210" height="130" as="geometry" />
        </mxCell>
        <mxCell id="R_b42avNDvzon8WLocAG-40" value="+ id: int&#xa;+ name: String" style="text;strokeColor=none;fillColor=none;align=left;verticalAlign=top;spacingLeft=4;spacingRight=4;overflow=hidden;rotatable=0;points=[[0,0.5],[1,0.5]];portConstraint=eastwest;" parent="R_b42avNDvzon8WLocAG-39" vertex="1">
          <mxGeometry y="26" width="210" height="44" as="geometry" />
        </mxCell>
        <mxCell id="R_b42avNDvzon8WLocAG-41" value="" style="line;strokeWidth=1;fillColor=none;align=left;verticalAlign=middle;spacingTop=-1;spacingLeft=3;spacingRight=3;rotatable=0;labelPosition=right;points=[];portConstraint=eastwest;strokeColor=inherit;" parent="R_b42avNDvzon8WLocAG-39" vertex="1">
          <mxGeometry y="70" width="210" height="8" as="geometry" />
        </mxCell>
        <mxCell id="R_b42avNDvzon8WLocAG-42" value="+ Brand(): void&#xa;+ Brand(int id, String name): void" style="text;strokeColor=none;fillColor=none;align=left;verticalAlign=top;spacingLeft=4;spacingRight=4;overflow=hidden;rotatable=0;points=[[0,0.5],[1,0.5]];portConstraint=eastwest;" parent="R_b42avNDvzon8WLocAG-39" vertex="1">
          <mxGeometry y="78" width="210" height="52" as="geometry" />
        </mxCell>
        <mxCell id="R_b42avNDvzon8WLocAG-43" value="State" style="swimlane;fontStyle=1;align=center;verticalAlign=top;childLayout=stackLayout;horizontal=1;startSize=26;horizontalStack=0;resizeParent=1;resizeParentMax=0;resizeLast=0;collapsible=1;marginBottom=0;" parent="1" vertex="1">
          <mxGeometry x="1570" y="242" width="210" height="130" as="geometry" />
        </mxCell>
        <mxCell id="R_b42avNDvzon8WLocAG-44" value="+ id: int&#xa;+ name: String" style="text;strokeColor=none;fillColor=none;align=left;verticalAlign=top;spacingLeft=4;spacingRight=4;overflow=hidden;rotatable=0;points=[[0,0.5],[1,0.5]];portConstraint=eastwest;" parent="R_b42avNDvzon8WLocAG-43" vertex="1">
          <mxGeometry y="26" width="210" height="44" as="geometry" />
        </mxCell>
        <mxCell id="R_b42avNDvzon8WLocAG-45" value="" style="line;strokeWidth=1;fillColor=none;align=left;verticalAlign=middle;spacingTop=-1;spacingLeft=3;spacingRight=3;rotatable=0;labelPosition=right;points=[];portConstraint=eastwest;strokeColor=inherit;" parent="R_b42avNDvzon8WLocAG-43" vertex="1">
          <mxGeometry y="70" width="210" height="8" as="geometry" />
        </mxCell>
        <mxCell id="R_b42avNDvzon8WLocAG-46" value="+ State(): void&#xa;+ State(int id, String name): void" style="text;strokeColor=none;fillColor=none;align=left;verticalAlign=top;spacingLeft=4;spacingRight=4;overflow=hidden;rotatable=0;points=[[0,0.5],[1,0.5]];portConstraint=eastwest;" parent="R_b42avNDvzon8WLocAG-43" vertex="1">
          <mxGeometry y="78" width="210" height="52" as="geometry" />
        </mxCell>
        <mxCell id="R_b42avNDvzon8WLocAG-47" value="Store    " style="swimlane;fontStyle=1;align=center;verticalAlign=top;childLayout=stackLayout;horizontal=1;startSize=26;horizontalStack=0;resizeParent=1;resizeParentMax=0;resizeLast=0;collapsible=1;marginBottom=0;" parent="1" vertex="1">
          <mxGeometry x="1790" y="242" width="240" height="150" as="geometry" />
        </mxCell>
        <mxCell id="R_b42avNDvzon8WLocAG-48" value="+ id: int&#xa;+ name: String&#xa;+ address: String&#xa;+ description: String" style="text;strokeColor=none;fillColor=none;align=left;verticalAlign=top;spacingLeft=4;spacingRight=4;overflow=hidden;rotatable=0;points=[[0,0.5],[1,0.5]];portConstraint=eastwest;" parent="R_b42avNDvzon8WLocAG-47" vertex="1">
          <mxGeometry y="26" width="240" height="64" as="geometry" />
        </mxCell>
        <mxCell id="R_b42avNDvzon8WLocAG-49" value="" style="line;strokeWidth=1;fillColor=none;align=left;verticalAlign=middle;spacingTop=-1;spacingLeft=3;spacingRight=3;rotatable=0;labelPosition=right;points=[];portConstraint=eastwest;strokeColor=inherit;" parent="R_b42avNDvzon8WLocAG-47" vertex="1">
          <mxGeometry y="90" width="240" height="8" as="geometry" />
        </mxCell>
        <mxCell id="R_b42avNDvzon8WLocAG-50" value="+ Store(): void&#xa;+ Store(int id, String name, String address, &#xa;             String description): void" style="text;strokeColor=none;fillColor=none;align=left;verticalAlign=top;spacingLeft=4;spacingRight=4;overflow=hidden;rotatable=0;points=[[0,0.5],[1,0.5]];portConstraint=eastwest;" parent="R_b42avNDvzon8WLocAG-47" vertex="1">
          <mxGeometry y="98" width="240" height="52" as="geometry" />
        </mxCell>
        <mxCell id="R_b42avNDvzon8WLocAG-51" value="Image" style="swimlane;fontStyle=1;align=center;verticalAlign=top;childLayout=stackLayout;horizontal=1;startSize=26;horizontalStack=0;resizeParent=1;resizeParentMax=0;resizeLast=0;collapsible=1;marginBottom=0;" parent="1" vertex="1">
          <mxGeometry x="2040" y="242" width="230" height="130" as="geometry" />
        </mxCell>
        <mxCell id="R_b42avNDvzon8WLocAG-52" value="+ image: String&#xa;+ productId: int" style="text;strokeColor=none;fillColor=none;align=left;verticalAlign=top;spacingLeft=4;spacingRight=4;overflow=hidden;rotatable=0;points=[[0,0.5],[1,0.5]];portConstraint=eastwest;" parent="R_b42avNDvzon8WLocAG-51" vertex="1">
          <mxGeometry y="26" width="230" height="44" as="geometry" />
        </mxCell>
        <mxCell id="R_b42avNDvzon8WLocAG-53" value="" style="line;strokeWidth=1;fillColor=none;align=left;verticalAlign=middle;spacingTop=-1;spacingLeft=3;spacingRight=3;rotatable=0;labelPosition=right;points=[];portConstraint=eastwest;strokeColor=inherit;" parent="R_b42avNDvzon8WLocAG-51" vertex="1">
          <mxGeometry y="70" width="230" height="8" as="geometry" />
        </mxCell>
        <mxCell id="R_b42avNDvzon8WLocAG-54" value="+ Image(): void&#xa;+ Image(String image, int productId): void" style="text;strokeColor=none;fillColor=none;align=left;verticalAlign=top;spacingLeft=4;spacingRight=4;overflow=hidden;rotatable=0;points=[[0,0.5],[1,0.5]];portConstraint=eastwest;" parent="R_b42avNDvzon8WLocAG-51" vertex="1">
          <mxGeometry y="78" width="230" height="52" as="geometry" />
        </mxCell>
        <mxCell id="R_b42avNDvzon8WLocAG-55" value="CategoryDAO" style="swimlane;fontStyle=1;align=center;verticalAlign=top;childLayout=stackLayout;horizontal=1;startSize=26;horizontalStack=0;resizeParent=1;resizeParentMax=0;resizeLast=0;collapsible=1;marginBottom=0;" parent="1" vertex="1">
          <mxGeometry x="1130" y="40" width="200" height="90" as="geometry" />
        </mxCell>
        <mxCell id="R_b42avNDvzon8WLocAG-56" value=" " style="text;strokeColor=none;fillColor=none;align=left;verticalAlign=top;spacingLeft=4;spacingRight=4;overflow=hidden;rotatable=0;points=[[0,0.5],[1,0.5]];portConstraint=eastwest;" parent="R_b42avNDvzon8WLocAG-55" vertex="1">
          <mxGeometry y="26" width="200" height="24" as="geometry" />
        </mxCell>
        <mxCell id="R_b42avNDvzon8WLocAG-57" value="" style="line;strokeWidth=1;fillColor=none;align=left;verticalAlign=middle;spacingTop=-1;spacingLeft=3;spacingRight=3;rotatable=0;labelPosition=right;points=[];portConstraint=eastwest;strokeColor=inherit;" parent="R_b42avNDvzon8WLocAG-55" vertex="1">
          <mxGeometry y="50" width="200" height="8" as="geometry" />
        </mxCell>
        <mxCell id="R_b42avNDvzon8WLocAG-58" value="+ getCategoryById(int id): Category" style="text;strokeColor=none;fillColor=none;align=left;verticalAlign=top;spacingLeft=4;spacingRight=4;overflow=hidden;rotatable=0;points=[[0,0.5],[1,0.5]];portConstraint=eastwest;" parent="R_b42avNDvzon8WLocAG-55" vertex="1">
          <mxGeometry y="58" width="200" height="32" as="geometry" />
        </mxCell>
        <mxCell id="R_b42avNDvzon8WLocAG-59" value="StateDAO" style="swimlane;fontStyle=1;align=center;verticalAlign=top;childLayout=stackLayout;horizontal=1;startSize=26;horizontalStack=0;resizeParent=1;resizeParentMax=0;resizeLast=0;collapsible=1;marginBottom=0;" parent="1" vertex="1">
          <mxGeometry x="1520" y="40" width="160" height="90" as="geometry" />
        </mxCell>
        <mxCell id="R_b42avNDvzon8WLocAG-60" value=" " style="text;strokeColor=none;fillColor=none;align=left;verticalAlign=top;spacingLeft=4;spacingRight=4;overflow=hidden;rotatable=0;points=[[0,0.5],[1,0.5]];portConstraint=eastwest;" parent="R_b42avNDvzon8WLocAG-59" vertex="1">
          <mxGeometry y="26" width="160" height="24" as="geometry" />
        </mxCell>
        <mxCell id="R_b42avNDvzon8WLocAG-61" value="" style="line;strokeWidth=1;fillColor=none;align=left;verticalAlign=middle;spacingTop=-1;spacingLeft=3;spacingRight=3;rotatable=0;labelPosition=right;points=[];portConstraint=eastwest;strokeColor=inherit;" parent="R_b42avNDvzon8WLocAG-59" vertex="1">
          <mxGeometry y="50" width="160" height="8" as="geometry" />
        </mxCell>
        <mxCell id="R_b42avNDvzon8WLocAG-62" value="+ getStateById(int id): State" style="text;strokeColor=none;fillColor=none;align=left;verticalAlign=top;spacingLeft=4;spacingRight=4;overflow=hidden;rotatable=0;points=[[0,0.5],[1,0.5]];portConstraint=eastwest;" parent="R_b42avNDvzon8WLocAG-59" vertex="1">
          <mxGeometry y="58" width="160" height="32" as="geometry" />
        </mxCell>
        <mxCell id="R_b42avNDvzon8WLocAG-63" value="StoreDAO" style="swimlane;fontStyle=1;align=center;verticalAlign=top;childLayout=stackLayout;horizontal=1;startSize=26;horizontalStack=0;resizeParent=1;resizeParentMax=0;resizeLast=0;collapsible=1;marginBottom=0;" parent="1" vertex="1">
          <mxGeometry x="1690" y="40" width="160" height="90" as="geometry" />
        </mxCell>
        <mxCell id="R_b42avNDvzon8WLocAG-64" value=" " style="text;strokeColor=none;fillColor=none;align=left;verticalAlign=top;spacingLeft=4;spacingRight=4;overflow=hidden;rotatable=0;points=[[0,0.5],[1,0.5]];portConstraint=eastwest;" parent="R_b42avNDvzon8WLocAG-63" vertex="1">
          <mxGeometry y="26" width="160" height="24" as="geometry" />
        </mxCell>
        <mxCell id="R_b42avNDvzon8WLocAG-65" value="" style="line;strokeWidth=1;fillColor=none;align=left;verticalAlign=middle;spacingTop=-1;spacingLeft=3;spacingRight=3;rotatable=0;labelPosition=right;points=[];portConstraint=eastwest;strokeColor=inherit;" parent="R_b42avNDvzon8WLocAG-63" vertex="1">
          <mxGeometry y="50" width="160" height="8" as="geometry" />
        </mxCell>
        <mxCell id="R_b42avNDvzon8WLocAG-66" value="+ getStoreById(int id): Store" style="text;strokeColor=none;fillColor=none;align=left;verticalAlign=top;spacingLeft=4;spacingRight=4;overflow=hidden;rotatable=0;points=[[0,0.5],[1,0.5]];portConstraint=eastwest;" parent="R_b42avNDvzon8WLocAG-63" vertex="1">
          <mxGeometry y="58" width="160" height="32" as="geometry" />
        </mxCell>
        <mxCell id="R_b42avNDvzon8WLocAG-67" value="ImageDAO" style="swimlane;fontStyle=1;align=center;verticalAlign=top;childLayout=stackLayout;horizontal=1;startSize=26;horizontalStack=0;resizeParent=1;resizeParentMax=0;resizeLast=0;collapsible=1;marginBottom=0;" parent="1" vertex="1">
          <mxGeometry x="1860" y="40" width="290" height="90" as="geometry" />
        </mxCell>
        <mxCell id="R_b42avNDvzon8WLocAG-68" value=" " style="text;strokeColor=none;fillColor=none;align=left;verticalAlign=top;spacingLeft=4;spacingRight=4;overflow=hidden;rotatable=0;points=[[0,0.5],[1,0.5]];portConstraint=eastwest;" parent="R_b42avNDvzon8WLocAG-67" vertex="1">
          <mxGeometry y="26" width="290" height="24" as="geometry" />
        </mxCell>
        <mxCell id="R_b42avNDvzon8WLocAG-69" value="" style="line;strokeWidth=1;fillColor=none;align=left;verticalAlign=middle;spacingTop=-1;spacingLeft=3;spacingRight=3;rotatable=0;labelPosition=right;points=[];portConstraint=eastwest;strokeColor=inherit;" parent="R_b42avNDvzon8WLocAG-67" vertex="1">
          <mxGeometry y="50" width="290" height="8" as="geometry" />
        </mxCell>
        <mxCell id="R_b42avNDvzon8WLocAG-70" value="+ getImagesByProductId(int productId): List&lt;Image&gt;" style="text;strokeColor=none;fillColor=none;align=left;verticalAlign=top;spacingLeft=4;spacingRight=4;overflow=hidden;rotatable=0;points=[[0,0.5],[1,0.5]];portConstraint=eastwest;" parent="R_b42avNDvzon8WLocAG-67" vertex="1">
          <mxGeometry y="58" width="290" height="32" as="geometry" />
        </mxCell>
        <mxCell id="R_b42avNDvzon8WLocAG-76" value="Use" style="endArrow=open;endSize=12;dashed=1;html=1;rounded=0;" parent="1" source="R_b42avNDvzon8WLocAG-11" target="R_b42avNDvzon8WLocAG-1" edge="1">
          <mxGeometry width="160" relative="1" as="geometry">
            <mxPoint x="1190" y="140" as="sourcePoint" />
            <mxPoint x="1350" y="140" as="targetPoint" />
          </mxGeometry>
        </mxCell>
        <mxCell id="R_b42avNDvzon8WLocAG-77" value="Use" style="endArrow=open;endSize=12;dashed=1;html=1;rounded=0;" parent="1" source="R_b42avNDvzon8WLocAG-55" target="R_b42avNDvzon8WLocAG-31" edge="1">
          <mxGeometry width="160" relative="1" as="geometry">
            <mxPoint x="941.1829652996844" y="200" as="sourcePoint" />
            <mxPoint x="942.0031545741326" y="252" as="targetPoint" />
          </mxGeometry>
        </mxCell>
        <mxCell id="R_b42avNDvzon8WLocAG-78" value="Use" style="endArrow=open;endSize=12;dashed=1;html=1;rounded=0;" parent="1" source="R_b42avNDvzon8WLocAG-35" target="R_b42avNDvzon8WLocAG-39" edge="1">
          <mxGeometry width="160" relative="1" as="geometry">
            <mxPoint x="951.1829652996844" y="210" as="sourcePoint" />
            <mxPoint x="952.0031545741326" y="262" as="targetPoint" />
          </mxGeometry>
        </mxCell>
        <mxCell id="R_b42avNDvzon8WLocAG-79" value="Use" style="endArrow=open;endSize=12;dashed=1;html=1;rounded=0;" parent="1" source="R_b42avNDvzon8WLocAG-59" target="R_b42avNDvzon8WLocAG-43" edge="1">
          <mxGeometry width="160" relative="1" as="geometry">
            <mxPoint x="1441.0810810810813" y="140" as="sourcePoint" />
            <mxPoint x="1456.2162162162163" y="252" as="targetPoint" />
          </mxGeometry>
        </mxCell>
        <mxCell id="R_b42avNDvzon8WLocAG-80" value="Use" style="endArrow=open;endSize=12;dashed=1;html=1;rounded=0;" parent="1" source="R_b42avNDvzon8WLocAG-63" target="R_b42avNDvzon8WLocAG-47" edge="1">
          <mxGeometry width="160" relative="1" as="geometry">
            <mxPoint x="1844.8610810810812" y="150" as="sourcePoint" />
            <mxPoint x="1859.9962162162162" y="262" as="targetPoint" />
          </mxGeometry>
        </mxCell>
        <mxCell id="R_b42avNDvzon8WLocAG-81" value="Use" style="endArrow=open;endSize=12;dashed=1;html=1;rounded=0;" parent="1" source="R_b42avNDvzon8WLocAG-67" target="R_b42avNDvzon8WLocAG-51" edge="1">
          <mxGeometry width="160" relative="1" as="geometry">
            <mxPoint x="1461.0810810810813" y="160" as="sourcePoint" />
            <mxPoint x="1476.2162162162163" y="272" as="targetPoint" />
          </mxGeometry>
        </mxCell>
        <mxCell id="R_b42avNDvzon8WLocAG-82" value="" style="endArrow=open;html=1;endSize=12;startArrow=diamondThin;startSize=14;startFill=0;edgeStyle=orthogonalEdgeStyle;align=left;verticalAlign=bottom;rounded=0;exitX=1;exitY=0.5;exitDx=0;exitDy=0;" parent="1" source="R_b42avNDvzon8WLocAG-14" target="R_b42avNDvzon8WLocAG-55" edge="1">
          <mxGeometry x="1" y="-45" relative="1" as="geometry">
            <mxPoint x="1030" y="180" as="sourcePoint" />
            <mxPoint x="1190" y="140" as="targetPoint" />
            <Array as="points">
              <mxPoint x="1190" y="174" />
            </Array>
            <mxPoint x="5" y="20" as="offset" />
          </mxGeometry>
        </mxCell>
        <mxCell id="R_b42avNDvzon8WLocAG-83" value="" style="endArrow=open;html=1;endSize=12;startArrow=diamondThin;startSize=14;startFill=0;edgeStyle=orthogonalEdgeStyle;align=left;verticalAlign=bottom;rounded=0;" parent="1" target="R_b42avNDvzon8WLocAG-35" edge="1">
          <mxGeometry x="1" y="-45" relative="1" as="geometry">
            <mxPoint x="1120" y="174" as="sourcePoint" />
            <mxPoint x="1425" y="114" as="targetPoint" />
            <Array as="points">
              <mxPoint x="1410" y="174" />
            </Array>
            <mxPoint x="5" y="20" as="offset" />
          </mxGeometry>
        </mxCell>
        <mxCell id="R_b42avNDvzon8WLocAG-84" value="" style="endArrow=open;html=1;endSize=12;startArrow=diamondThin;startSize=14;startFill=0;edgeStyle=orthogonalEdgeStyle;align=left;verticalAlign=bottom;rounded=0;" parent="1" target="R_b42avNDvzon8WLocAG-59" edge="1">
          <mxGeometry x="1" y="-45" relative="1" as="geometry">
            <mxPoint x="1120" y="174" as="sourcePoint" />
            <mxPoint x="1425" y="130" as="targetPoint" />
            <Array as="points">
              <mxPoint x="1600" y="174" />
            </Array>
            <mxPoint x="5" y="20" as="offset" />
          </mxGeometry>
        </mxCell>
        <mxCell id="R_b42avNDvzon8WLocAG-85" value="" style="endArrow=open;html=1;endSize=12;startArrow=diamondThin;startSize=14;startFill=0;edgeStyle=orthogonalEdgeStyle;align=left;verticalAlign=bottom;rounded=0;" parent="1" target="R_b42avNDvzon8WLocAG-63" edge="1">
          <mxGeometry x="1" y="-45" relative="1" as="geometry">
            <mxPoint x="1120" y="174" as="sourcePoint" />
            <mxPoint x="1600" y="130" as="targetPoint" />
            <Array as="points">
              <mxPoint x="1770" y="174" />
            </Array>
            <mxPoint x="5" y="20" as="offset" />
          </mxGeometry>
        </mxCell>
        <mxCell id="R_b42avNDvzon8WLocAG-86" value="" style="endArrow=open;html=1;endSize=12;startArrow=diamondThin;startSize=14;startFill=0;edgeStyle=orthogonalEdgeStyle;align=left;verticalAlign=bottom;rounded=0;" parent="1" target="R_b42avNDvzon8WLocAG-67" edge="1">
          <mxGeometry x="1" y="-45" relative="1" as="geometry">
            <mxPoint x="1120" y="174" as="sourcePoint" />
            <mxPoint x="1770" y="130" as="targetPoint" />
            <Array as="points">
              <mxPoint x="2005" y="174" />
            </Array>
            <mxPoint x="5" y="20" as="offset" />
          </mxGeometry>
        </mxCell>
        <mxCell id="R_b42avNDvzon8WLocAG-87" value="Cart" style="swimlane;fontStyle=1;align=center;verticalAlign=top;childLayout=stackLayout;horizontal=1;startSize=26;horizontalStack=0;resizeParent=1;resizeParentMax=0;resizeLast=0;collapsible=1;marginBottom=0;" parent="1" vertex="1">
          <mxGeometry x="405" y="290" width="210" height="200" as="geometry" />
        </mxCell>
        <mxCell id="R_b42avNDvzon8WLocAG-88" value="+ items: List&lt;CartItem&gt;" style="text;strokeColor=none;fillColor=none;align=left;verticalAlign=top;spacingLeft=4;spacingRight=4;overflow=hidden;rotatable=0;points=[[0,0.5],[1,0.5]];portConstraint=eastwest;" parent="R_b42avNDvzon8WLocAG-87" vertex="1">
          <mxGeometry y="26" width="210" height="24" as="geometry" />
        </mxCell>
        <mxCell id="R_b42avNDvzon8WLocAG-89" value="" style="line;strokeWidth=1;fillColor=none;align=left;verticalAlign=middle;spacingTop=-1;spacingLeft=3;spacingRight=3;rotatable=0;labelPosition=right;points=[];portConstraint=eastwest;strokeColor=inherit;" parent="R_b42avNDvzon8WLocAG-87" vertex="1">
          <mxGeometry y="50" width="210" height="8" as="geometry" />
        </mxCell>
        <mxCell id="R_b42avNDvzon8WLocAG-90" value="+ Cart(): void&#xa;+ Cart(List&lt;CartItem&gt; items): void&#xa;+ getItemById(int id): CartItem&#xa;+ getQuantityById(int id): int&#xa;+ addItem(CartItem item): void&#xa;+ removeItem(CartItem item): void&#xa;+ removeItem(int id): void&#xa;+ getTotalMoney(): double&#xa;+ getTotalMoneyVND(): String" style="text;strokeColor=none;fillColor=none;align=left;verticalAlign=top;spacingLeft=4;spacingRight=4;overflow=hidden;rotatable=0;points=[[0,0.5],[1,0.5]];portConstraint=eastwest;" parent="R_b42avNDvzon8WLocAG-87" vertex="1">
          <mxGeometry y="58" width="210" height="142" as="geometry" />
        </mxCell>
        <mxCell id="R_b42avNDvzon8WLocAG-91" value="" style="endArrow=open;html=1;endSize=12;startArrow=diamondThin;startSize=14;startFill=0;edgeStyle=orthogonalEdgeStyle;align=left;verticalAlign=bottom;rounded=0;" parent="1" source="R_b42avNDvzon8WLocAG-7" target="R_b42avNDvzon8WLocAG-87" edge="1">
          <mxGeometry x="-1" y="50" relative="1" as="geometry">
            <mxPoint x="510" y="333" as="sourcePoint" />
            <mxPoint x="740" y="281" as="targetPoint" />
            <Array as="points">
              <mxPoint x="510" y="300" />
              <mxPoint x="510" y="300" />
            </Array>
            <mxPoint x="-40" y="20" as="offset" />
          </mxGeometry>
        </mxCell>
        <mxCell id="R_b42avNDvzon8WLocAG-92" value="CartItem" style="swimlane;fontStyle=1;align=center;verticalAlign=top;childLayout=stackLayout;horizontal=1;startSize=26;horizontalStack=0;resizeParent=1;resizeParentMax=0;resizeLast=0;collapsible=1;marginBottom=0;" parent="1" vertex="1">
          <mxGeometry x="405" y="502" width="255" height="140" as="geometry" />
        </mxCell>
        <mxCell id="R_b42avNDvzon8WLocAG-93" value="+ product: Product&#xa;+ quantity: int" style="text;strokeColor=none;fillColor=none;align=left;verticalAlign=top;spacingLeft=4;spacingRight=4;overflow=hidden;rotatable=0;points=[[0,0.5],[1,0.5]];portConstraint=eastwest;" parent="R_b42avNDvzon8WLocAG-92" vertex="1">
          <mxGeometry y="26" width="255" height="34" as="geometry" />
        </mxCell>
        <mxCell id="R_b42avNDvzon8WLocAG-94" value="" style="line;strokeWidth=1;fillColor=none;align=left;verticalAlign=middle;spacingTop=-1;spacingLeft=3;spacingRight=3;rotatable=0;labelPosition=right;points=[];portConstraint=eastwest;strokeColor=inherit;" parent="R_b42avNDvzon8WLocAG-92" vertex="1">
          <mxGeometry y="60" width="255" height="8" as="geometry" />
        </mxCell>
        <mxCell id="R_b42avNDvzon8WLocAG-95" value="+ CartItem(): void&#xa;+ CartItem(Product product, int quantity): void&#xa;+ getPrice(): double&#xa;+ getPriceVND(): String" style="text;strokeColor=none;fillColor=none;align=left;verticalAlign=top;spacingLeft=4;spacingRight=4;overflow=hidden;rotatable=0;points=[[0,0.5],[1,0.5]];portConstraint=eastwest;" parent="R_b42avNDvzon8WLocAG-92" vertex="1">
          <mxGeometry y="68" width="255" height="72" as="geometry" />
        </mxCell>
        <mxCell id="R_b42avNDvzon8WLocAG-97" value="Use" style="endArrow=open;endSize=12;dashed=1;html=1;rounded=0;" parent="1" source="R_b42avNDvzon8WLocAG-92" target="R_b42avNDvzon8WLocAG-1" edge="1">
          <mxGeometry width="160" relative="1" as="geometry">
            <mxPoint x="520" y="420" as="sourcePoint" />
            <mxPoint x="520" y="470" as="targetPoint" />
          </mxGeometry>
        </mxCell>
        <mxCell id="R_b42avNDvzon8WLocAG-98" value="Use" style="endArrow=open;endSize=12;dashed=1;html=1;rounded=0;" parent="1" source="R_b42avNDvzon8WLocAG-90" target="R_b42avNDvzon8WLocAG-92" edge="1">
          <mxGeometry width="160" relative="1" as="geometry">
            <mxPoint x="640" y="391.9998757763976" as="sourcePoint" />
            <mxPoint x="660" y="500" as="targetPoint" />
            <Array as="points">
              <mxPoint x="650" y="419" />
              <mxPoint x="650" y="470" />
              <mxPoint x="650" y="480" />
            </Array>
          </mxGeometry>
        </mxCell>
        <mxCell id="lfraUzHy0UAMaT1oh2VV-2" value="" style="endArrow=block;dashed=1;endFill=0;endSize=12;html=1;rounded=0;exitX=0.75;exitY=0;exitDx=0;exitDy=0;" parent="1" source="R_b42avNDvzon8WLocAG-55" target="R_b42avNDvzon8WLocAG-18" edge="1">
          <mxGeometry width="160" relative="1" as="geometry">
            <mxPoint x="1155" y="-10" as="sourcePoint" />
            <mxPoint x="1390" y="-30" as="targetPoint" />
            <Array as="points">
              <mxPoint x="1280" />
              <mxPoint x="1570" />
            </Array>
          </mxGeometry>
        </mxCell>
        <mxCell id="lfraUzHy0UAMaT1oh2VV-3" value="" style="endArrow=none;dashed=1;html=1;rounded=0;" parent="1" edge="1">
          <mxGeometry width="50" height="50" relative="1" as="geometry">
            <mxPoint x="1420" y="40" as="sourcePoint" />
            <mxPoint x="1420" as="targetPoint" />
          </mxGeometry>
        </mxCell>
        <mxCell id="lfraUzHy0UAMaT1oh2VV-5" value="" style="endArrow=none;dashed=1;html=1;rounded=0;" parent="1" edge="1">
          <mxGeometry width="50" height="50" relative="1" as="geometry">
            <mxPoint x="1570" y="40" as="sourcePoint" />
            <mxPoint x="1570" as="targetPoint" />
          </mxGeometry>
        </mxCell>
        <mxCell id="lfraUzHy0UAMaT1oh2VV-6" value="" style="endArrow=none;dashed=1;html=1;rounded=0;" parent="1" source="R_b42avNDvzon8WLocAG-63" edge="1">
          <mxGeometry width="50" height="50" relative="1" as="geometry">
            <mxPoint x="1750" y="10" as="sourcePoint" />
            <mxPoint x="1570" as="targetPoint" />
            <Array as="points">
              <mxPoint x="1770" />
            </Array>
          </mxGeometry>
        </mxCell>
        <mxCell id="lfraUzHy0UAMaT1oh2VV-7" value="" style="endArrow=none;dashed=1;html=1;rounded=0;" parent="1" edge="1">
          <mxGeometry width="50" height="50" relative="1" as="geometry">
            <mxPoint x="1970" y="40" as="sourcePoint" />
            <mxPoint x="1770" as="targetPoint" />
            <Array as="points">
              <mxPoint x="1970" />
            </Array>
          </mxGeometry>
        </mxCell>
        <mxCell id="lfraUzHy0UAMaT1oh2VV-8" value="Extends" style="text;html=1;align=center;verticalAlign=middle;resizable=0;points=[];autosize=1;strokeColor=none;fillColor=none;" parent="1" vertex="1">
          <mxGeometry x="1535" y="-35" width="70" height="30" as="geometry" />
        </mxCell>
        <mxCell id="lfraUzHy0UAMaT1oh2VV-10" value="" style="endArrow=none;dashed=1;html=1;rounded=0;exitX=0.75;exitY=0;exitDx=0;exitDy=0;" parent="1" source="R_b42avNDvzon8WLocAG-11" edge="1">
          <mxGeometry width="50" height="50" relative="1" as="geometry">
            <mxPoint x="970" y="5" as="sourcePoint" />
            <mxPoint x="1280" as="targetPoint" />
            <Array as="points">
              <mxPoint x="1025" />
            </Array>
          </mxGeometry>
        </mxCell>
      </root>
    </mxGraphModel>
  </diagram>
  <diagram id="AXoBGR_MLKZJGE1NFDvo" name="Trang-2">
    <mxGraphModel dx="1635" dy="896" grid="1" gridSize="10" guides="1" tooltips="1" connect="1" arrows="1" fold="1" page="1" pageScale="1" pageWidth="827" pageHeight="1169" math="0" shadow="0">
      <root>
        <mxCell id="0" />
        <mxCell id="1" parent="0" />
        <mxCell id="HUg-reQIVsCj5zVNsk8b-15" value="" style="rounded=0;whiteSpace=wrap;html=1;" parent="1" vertex="1">
          <mxGeometry x="300" y="160" width="790" height="760" as="geometry" />
        </mxCell>
        <mxCell id="0IFNWw9rKpCn1gXUxRyo-1" value="Actor" style="shape=umlActor;verticalLabelPosition=bottom;verticalAlign=top;html=1;outlineConnect=0;" parent="1" vertex="1">
          <mxGeometry x="160" y="340" width="30" height="60" as="geometry" />
        </mxCell>
        <mxCell id="0IFNWw9rKpCn1gXUxRyo-2" value="Login" style="ellipse;whiteSpace=wrap;html=1;" parent="1" vertex="1">
          <mxGeometry x="360" y="200" width="120" height="40" as="geometry" />
        </mxCell>
        <mxCell id="0IFNWw9rKpCn1gXUxRyo-3" value="" style="ellipse;whiteSpace=wrap;html=1;" parent="1" vertex="1">
          <mxGeometry x="360" y="80" width="120" height="40" as="geometry" />
        </mxCell>
        <mxCell id="0IFNWw9rKpCn1gXUxRyo-5" value="" style="ellipse;whiteSpace=wrap;html=1;" parent="1" vertex="1">
          <mxGeometry x="370" y="90" width="120" height="40" as="geometry" />
        </mxCell>
        <mxCell id="0IFNWw9rKpCn1gXUxRyo-6" value="" style="ellipse;whiteSpace=wrap;html=1;" parent="1" vertex="1">
          <mxGeometry x="390" y="100" width="120" height="40" as="geometry" />
        </mxCell>
        <mxCell id="0IFNWw9rKpCn1gXUxRyo-7" value="Add new patiient" style="ellipse;whiteSpace=wrap;html=1;" parent="1" vertex="1">
          <mxGeometry x="360" y="280" width="120" height="40" as="geometry" />
        </mxCell>
        <mxCell id="0IFNWw9rKpCn1gXUxRyo-8" value="Manage taxes" style="ellipse;whiteSpace=wrap;html=1;" parent="1" vertex="1">
          <mxGeometry x="560" y="760" width="120" height="40" as="geometry" />
        </mxCell>
        <mxCell id="0IFNWw9rKpCn1gXUxRyo-9" value="invoices report" style="ellipse;whiteSpace=wrap;html=1;" parent="1" vertex="1">
          <mxGeometry x="560" y="680" width="120" height="40" as="geometry" />
        </mxCell>
        <mxCell id="0IFNWw9rKpCn1gXUxRyo-11" value="Browse" style="ellipse;whiteSpace=wrap;html=1;" parent="1" vertex="1">
          <mxGeometry x="880" y="550" width="120" height="40" as="geometry" />
        </mxCell>
        <mxCell id="0IFNWw9rKpCn1gXUxRyo-12" value="export" style="ellipse;whiteSpace=wrap;html=1;" parent="1" vertex="1">
          <mxGeometry x="960" y="460" width="120" height="40" as="geometry" />
        </mxCell>
        <mxCell id="0IFNWw9rKpCn1gXUxRyo-13" value="Manage payments" style="ellipse;whiteSpace=wrap;html=1;" parent="1" vertex="1">
          <mxGeometry x="360" y="640" width="120" height="40" as="geometry" />
        </mxCell>
        <mxCell id="0IFNWw9rKpCn1gXUxRyo-14" value="connect insurances" style="ellipse;whiteSpace=wrap;html=1;" parent="1" vertex="1">
          <mxGeometry x="560" y="480" width="120" height="40" as="geometry" />
        </mxCell>
        <mxCell id="0IFNWw9rKpCn1gXUxRyo-15" value="Add fee" style="ellipse;whiteSpace=wrap;html=1;" parent="1" vertex="1">
          <mxGeometry x="640" y="240" width="120" height="40" as="geometry" />
        </mxCell>
        <mxCell id="0IFNWw9rKpCn1gXUxRyo-16" value="Manage patients" style="ellipse;whiteSpace=wrap;html=1;" parent="1" vertex="1">
          <mxGeometry x="360" y="360" width="120" height="40" as="geometry" />
        </mxCell>
        <mxCell id="0IFNWw9rKpCn1gXUxRyo-19" value="Include" style="endArrow=open;endSize=12;dashed=1;html=1;rounded=0;exitX=1;exitY=0.5;exitDx=0;exitDy=0;entryX=0;entryY=0.5;entryDx=0;entryDy=0;" parent="1" source="0IFNWw9rKpCn1gXUxRyo-13" target="0IFNWw9rKpCn1gXUxRyo-12" edge="1">
          <mxGeometry width="160" relative="1" as="geometry">
            <mxPoint x="500" y="740" as="sourcePoint" />
            <mxPoint x="580" y="820" as="targetPoint" />
          </mxGeometry>
        </mxCell>
        <mxCell id="0IFNWw9rKpCn1gXUxRyo-20" value="Extend" style="endArrow=open;endSize=12;dashed=1;html=1;rounded=0;exitX=0;exitY=0.5;exitDx=0;exitDy=0;" parent="1" source="0IFNWw9rKpCn1gXUxRyo-14" target="0IFNWw9rKpCn1gXUxRyo-16" edge="1">
          <mxGeometry width="160" relative="1" as="geometry">
            <mxPoint x="520" y="480" as="sourcePoint" />
            <mxPoint x="600" y="560" as="targetPoint" />
          </mxGeometry>
        </mxCell>
        <mxCell id="0IFNWw9rKpCn1gXUxRyo-21" value="Extend" style="endArrow=open;endSize=12;dashed=1;html=1;rounded=0;exitX=0;exitY=0.5;exitDx=0;exitDy=0;" parent="1" source="0IFNWw9rKpCn1gXUxRyo-15" target="0IFNWw9rKpCn1gXUxRyo-16" edge="1">
          <mxGeometry width="160" relative="1" as="geometry">
            <mxPoint x="570" y="350" as="sourcePoint" />
            <mxPoint x="490" y="390" as="targetPoint" />
          </mxGeometry>
        </mxCell>
        <mxCell id="0IFNWw9rKpCn1gXUxRyo-22" value="Extend" style="endArrow=open;endSize=12;dashed=1;html=1;rounded=0;exitX=0;exitY=0.5;exitDx=0;exitDy=0;entryX=1;entryY=0.5;entryDx=0;entryDy=0;" parent="1" source="0IFNWw9rKpCn1gXUxRyo-9" target="0IFNWw9rKpCn1gXUxRyo-13" edge="1">
          <mxGeometry width="160" relative="1" as="geometry">
            <mxPoint x="570" y="770" as="sourcePoint" />
            <mxPoint x="490" y="730" as="targetPoint" />
          </mxGeometry>
        </mxCell>
        <mxCell id="0IFNWw9rKpCn1gXUxRyo-23" value="Extend" style="endArrow=open;endSize=12;dashed=1;html=1;rounded=0;exitX=0;exitY=0.5;exitDx=0;exitDy=0;entryX=1;entryY=0.5;entryDx=0;entryDy=0;" parent="1" source="0IFNWw9rKpCn1gXUxRyo-8" target="0IFNWw9rKpCn1gXUxRyo-13" edge="1">
          <mxGeometry width="160" relative="1" as="geometry">
            <mxPoint x="570" y="930" as="sourcePoint" />
            <mxPoint x="490" y="850" as="targetPoint" />
          </mxGeometry>
        </mxCell>
        <mxCell id="0IFNWw9rKpCn1gXUxRyo-24" value="Include" style="endArrow=open;endSize=12;dashed=1;html=1;rounded=0;exitX=1;exitY=0.5;exitDx=0;exitDy=0;entryX=0;entryY=0.5;entryDx=0;entryDy=0;" parent="1" source="0IFNWw9rKpCn1gXUxRyo-16" target="0IFNWw9rKpCn1gXUxRyo-12" edge="1">
          <mxGeometry width="160" relative="1" as="geometry">
            <mxPoint x="490" y="850" as="sourcePoint" />
            <mxPoint x="570" y="850" as="targetPoint" />
          </mxGeometry>
        </mxCell>
        <mxCell id="0IFNWw9rKpCn1gXUxRyo-25" value="Include" style="endArrow=open;endSize=12;dashed=1;html=1;rounded=0;" parent="1" source="HUg-reQIVsCj5zVNsk8b-3" target="0IFNWw9rKpCn1gXUxRyo-12" edge="1">
          <mxGeometry width="160" relative="1" as="geometry">
            <mxPoint x="880" y="580" as="sourcePoint" />
            <mxPoint x="580" y="600" as="targetPoint" />
          </mxGeometry>
        </mxCell>
        <mxCell id="0IFNWw9rKpCn1gXUxRyo-26" value="Include" style="endArrow=open;endSize=12;dashed=1;html=1;rounded=0;exitX=1;exitY=0.5;exitDx=0;exitDy=0;entryX=0;entryY=0.5;entryDx=0;entryDy=0;" parent="1" source="0IFNWw9rKpCn1gXUxRyo-13" target="0IFNWw9rKpCn1gXUxRyo-11" edge="1">
          <mxGeometry width="160" relative="1" as="geometry">
            <mxPoint x="489.9999999999998" y="810" as="sourcePoint" />
            <mxPoint x="730" y="730" as="targetPoint" />
          </mxGeometry>
        </mxCell>
        <mxCell id="0IFNWw9rKpCn1gXUxRyo-27" value="Include" style="endArrow=open;endSize=12;dashed=1;html=1;rounded=0;entryX=0;entryY=0.5;entryDx=0;entryDy=0;exitX=1;exitY=0.5;exitDx=0;exitDy=0;" parent="1" source="0IFNWw9rKpCn1gXUxRyo-16" target="0IFNWw9rKpCn1gXUxRyo-11" edge="1">
          <mxGeometry width="160" relative="1" as="geometry">
            <mxPoint x="460" y="710" as="sourcePoint" />
            <mxPoint x="730" y="810" as="targetPoint" />
          </mxGeometry>
        </mxCell>
        <mxCell id="0IFNWw9rKpCn1gXUxRyo-29" value="" style="endArrow=none;html=1;rounded=0;entryX=0;entryY=0.5;entryDx=0;entryDy=0;exitX=1;exitY=0.3333333333333333;exitDx=0;exitDy=0;exitPerimeter=0;" parent="1" source="0IFNWw9rKpCn1gXUxRyo-1" target="0IFNWw9rKpCn1gXUxRyo-2" edge="1">
          <mxGeometry width="50" height="50" relative="1" as="geometry">
            <mxPoint x="250" y="480" as="sourcePoint" />
            <mxPoint x="300" y="430" as="targetPoint" />
          </mxGeometry>
        </mxCell>
        <mxCell id="0IFNWw9rKpCn1gXUxRyo-30" value="" style="endArrow=none;html=1;rounded=0;entryX=0;entryY=0.5;entryDx=0;entryDy=0;exitX=1;exitY=0.3333333333333333;exitDx=0;exitDy=0;exitPerimeter=0;" parent="1" source="0IFNWw9rKpCn1gXUxRyo-1" target="0IFNWw9rKpCn1gXUxRyo-16" edge="1">
          <mxGeometry width="50" height="50" relative="1" as="geometry">
            <mxPoint x="200" y="370" as="sourcePoint" />
            <mxPoint x="369.9999999999998" y="310" as="targetPoint" />
          </mxGeometry>
        </mxCell>
        <mxCell id="0IFNWw9rKpCn1gXUxRyo-31" value="" style="endArrow=none;html=1;rounded=0;entryX=0;entryY=0.5;entryDx=0;entryDy=0;exitX=1;exitY=0.3333333333333333;exitDx=0;exitDy=0;exitPerimeter=0;" parent="1" source="0IFNWw9rKpCn1gXUxRyo-1" target="0IFNWw9rKpCn1gXUxRyo-13" edge="1">
          <mxGeometry width="50" height="50" relative="1" as="geometry">
            <mxPoint x="210" y="380" as="sourcePoint" />
            <mxPoint x="379.9999999999998" y="320" as="targetPoint" />
          </mxGeometry>
        </mxCell>
        <mxCell id="HUg-reQIVsCj5zVNsk8b-1" value="Update fee" style="ellipse;whiteSpace=wrap;html=1;" parent="1" vertex="1">
          <mxGeometry x="640" y="300" width="120" height="40" as="geometry" />
        </mxCell>
        <mxCell id="HUg-reQIVsCj5zVNsk8b-2" value="Extend" style="endArrow=open;endSize=12;dashed=1;html=1;rounded=0;exitX=0;exitY=0.5;exitDx=0;exitDy=0;" parent="1" source="HUg-reQIVsCj5zVNsk8b-1" target="0IFNWw9rKpCn1gXUxRyo-16" edge="1">
          <mxGeometry width="160" relative="1" as="geometry">
            <mxPoint x="840" y="370" as="sourcePoint" />
            <mxPoint x="750" y="400" as="targetPoint" />
          </mxGeometry>
        </mxCell>
        <mxCell id="HUg-reQIVsCj5zVNsk8b-3" value="Total fee" style="ellipse;whiteSpace=wrap;html=1;" parent="1" vertex="1">
          <mxGeometry x="640" y="360" width="120" height="40" as="geometry" />
        </mxCell>
        <mxCell id="HUg-reQIVsCj5zVNsk8b-4" value="Extend" style="endArrow=open;endSize=12;dashed=1;html=1;rounded=0;exitX=0;exitY=0.5;exitDx=0;exitDy=0;" parent="1" source="HUg-reQIVsCj5zVNsk8b-3" target="0IFNWw9rKpCn1gXUxRyo-16" edge="1">
          <mxGeometry width="160" relative="1" as="geometry">
            <mxPoint x="880" y="370" as="sourcePoint" />
            <mxPoint x="790" y="400" as="targetPoint" />
          </mxGeometry>
        </mxCell>
        <mxCell id="HUg-reQIVsCj5zVNsk8b-8" value="modify insurances" style="ellipse;whiteSpace=wrap;html=1;" parent="1" vertex="1">
          <mxGeometry x="560" y="550" width="120" height="40" as="geometry" />
        </mxCell>
        <mxCell id="HUg-reQIVsCj5zVNsk8b-9" value="Extend" style="endArrow=open;endSize=12;dashed=1;html=1;rounded=0;exitX=0;exitY=0.5;exitDx=0;exitDy=0;" parent="1" source="HUg-reQIVsCj5zVNsk8b-8" target="0IFNWw9rKpCn1gXUxRyo-16" edge="1">
          <mxGeometry width="160" relative="1" as="geometry">
            <mxPoint x="520" y="590" as="sourcePoint" />
            <mxPoint x="480" y="490" as="targetPoint" />
          </mxGeometry>
        </mxCell>
        <mxCell id="HUg-reQIVsCj5zVNsk8b-10" value="Add new payment" style="ellipse;whiteSpace=wrap;html=1;" parent="1" vertex="1">
          <mxGeometry x="360" y="840" width="120" height="40" as="geometry" />
        </mxCell>
        <mxCell id="HUg-reQIVsCj5zVNsk8b-13" value="" style="endArrow=none;html=1;rounded=0;entryX=0;entryY=0.5;entryDx=0;entryDy=0;exitX=1;exitY=0.3333333333333333;exitDx=0;exitDy=0;exitPerimeter=0;" parent="1" source="0IFNWw9rKpCn1gXUxRyo-1" target="HUg-reQIVsCj5zVNsk8b-10" edge="1">
          <mxGeometry width="50" height="50" relative="1" as="geometry">
            <mxPoint x="200" y="370" as="sourcePoint" />
            <mxPoint x="370" y="670" as="targetPoint" />
          </mxGeometry>
        </mxCell>
        <mxCell id="HUg-reQIVsCj5zVNsk8b-14" value="" style="endArrow=none;html=1;rounded=0;entryX=0;entryY=0.5;entryDx=0;entryDy=0;exitX=1;exitY=0.3333333333333333;exitDx=0;exitDy=0;exitPerimeter=0;" parent="1" source="0IFNWw9rKpCn1gXUxRyo-1" target="0IFNWw9rKpCn1gXUxRyo-7" edge="1">
          <mxGeometry width="50" height="50" relative="1" as="geometry">
            <mxPoint x="210" y="380" as="sourcePoint" />
            <mxPoint x="380" y="680" as="targetPoint" />
          </mxGeometry>
        </mxCell>
      </root>
    </mxGraphModel>
  </diagram>
</mxfile>
